<svg xmlns="http://www.w3.org/2000/svg" width="170" height="62" viewBox="0 0 299.559 109.251">
<defs>
    <style>
      .cls {
        fill: #fff;
        fill-opacity: 0;
        stroke: #0eabad;
        stroke-linejoin: round;
        stroke-width: 2px;
      }

      .cls-2, .cls-3 {
        fill: #0eabad;
      }

      .cls-3 {
        fill-rule: evenodd;
      }
    </style>
  </defs>
  <rect id="Rectangle_3_copy" data-name="Rectangle 3 copy" class="cls" x="1.78" y="2.126" width="296" height="105"/>
  <rect id="Rectangle_3_copy_2" data-name="Rectangle 3 copy 2" class="cls-2" x="118.78" y="17.126" width="2" height="75"/>
  <path id="AK" class="cls-3" d="M66.435,72.963L50.1,36.227H41.939L25.608,72.963h8.976L38.1,65.027H53.943l3.515,7.936h8.977ZM50.753,57.827H41.29l4.759-10.669ZM67.57,72.963h8.436V62.557l3.785-4.1,11.085,14.5h9.842q-2.6-3.52-7.841-10.695t-7.192-9.8l15.033-16.239H90.281L76.006,51.31V36.227H67.57V72.963Z" transform="translate(-2.22 -1.874)"/>
  <path class="cls-3" d="M260.67,70.465c-4.271,4.255-9.473,4.954-16.573,5.126-6.713.158-14.569-.944-18.768-8.075-4.824-8.2-4.357-18.682-3.65-21.559,1.708-6.962,13.707-8.073,22.267-8.073,12.5,0,20.92,1.763,22.462,6.8,1.391,4.544.975,19.09-5.738,25.782m-65-2.949c-4.2,7.131-12.056,8.233-18.768,8.075-7.1-.169-12.3-0.87-16.571-5.126-6.715-6.692-7.129-21.237-5.739-25.782,1.541-5.036,9.961-6.8,22.462-6.8,8.56,0,20.561,1.111,22.269,8.073,0.7,2.876,1.172,13.363-3.653,21.559M150.5,46.132A1.137,1.137,0,1,1,151.617,45a1.125,1.125,0,0,1-1.117,1.137m-3.124,0A1.137,1.137,0,1,1,148.494,45a1.128,1.128,0,0,1-1.118,1.137m126.25,0A1.137,1.137,0,1,1,274.744,45a1.127,1.127,0,0,1-1.118,1.137m-3.122,0A1.137,1.137,0,1,1,271.621,45a1.129,1.129,0,0,1-1.117,1.137m7.489-2.6c0-2.175-1.375-1.609-4.243-1.993a12.04,12.04,0,0,1-4.316-1.63c-7.121-4.91-19.911-4.793-23.81-4.881-12.071-.284-23.427,2.823-35.124,2.848-11.7-.026-23.053-3.132-35.124-2.848-3.9.088-16.69-.029-23.811,4.88a12.029,12.029,0,0,1-4.317,1.631c-2.867.385-4.243-.182-4.243,1.994,0,0,0,.977,0,1.355,0,2.421,1.174,2.684,3.028,2.691a4.535,4.535,0,0,1,2.524,1c3.49,2.3,3.452,19.946,12.6,25.5C163.372,75.428,168.637,78,178,78c12.68,0,15.755-3.827,17.584-5.315,3.879-3.166,9.68-18.364,9.657-24.022,0.008-.731-1.716-1.645-0.677-3.137,0.61-.88,2.529-1.334,5.934-1.247,3.406-.087,5.323.367,5.934,1.247,1.04,1.492-.684,2.407-0.674,3.137-0.025,5.658,5.776,20.856,9.655,24.022C227.243,74.172,230.318,78,243,78c9.367,0,14.63-2.572,16.853-3.921,9.144-5.555,9.107-23.2,12.6-25.5a4.535,4.535,0,0,1,2.524-1c1.852-.007,3.029-0.27,3.029-2.691,0-.38-0.006-1.355-0.006-1.355" transform="translate(-2.22 -1.874)"/>
</svg>
